<svg xmlns="http://www.w3.org/2000/svg" aria-hidden="true" style="position:absolute;width:0;height:0;overflow:hidden"><defs><symbol id="icon-icon-arrow" viewBox="0 0 32 32"><path d="m27.525 16.525-9 9a.739.739 0 0 1-.809.161.739.739 0 0 1-.459-.686.731.731 0 0 1 .218-.525l7.713-7.725H5a.753.753 0 0 1-.75-.75.753.753 0 0 1 .75-.75h20.188l-7.713-7.725a.742.742 0 0 1 1.05-1.05l9 9a.72.72 0 0 1 .225.525.725.725 0 0 1-.225.525z"/></symbol><symbol id="icon-icon-fc" viewBox="0 0 32 32"><path d="M16 0c8.837 0 16 7.163 16 16s-7.163 16-16 16S0 24.837 0 16 7.163 0 16 0z"/><path stroke-width=".889" d="M16 .444C24.591.444 31.556 7.408 31.556 16S24.592 31.556 16 31.556C7.409 31.556.444 24.592.444 16S7.408.444 16 .444z"/><path d="M22.375 16a6.38 6.38 0 0 0-3.935-5.89 6.37 6.37 0 0 0-6.947 1.382 6.38 6.38 0 0 0-1.382 6.947 6.37 6.37 0 0 0 10.396 2.066 6.384 6.384 0 0 0 1.869-4.506zm-6 5.613v-4.238H18a.376.376 0 0 0 .375-.375.376.376 0 0 0-.375-.375h-1.625V15a1.126 1.126 0 0 1 1.125-1.125h1a.376.376 0 0 0 .375-.375.376.376 0 0 0-.375-.375h-1A1.883 1.883 0 0 0 15.625 15v1.625H14a.376.376 0 0 0-.375.375.376.376 0 0 0 .375.375h1.625v4.238a5.624 5.624 0 0 1 .376-11.238 5.623 5.623 0 0 1 5.622 5.438 5.626 5.626 0 0 1-5.246 5.8z"/></symbol><symbol id="icon-icon-instagram" viewBox="0 0 32 32"><path d="M16 0c8.837 0 16 7.163 16 16s-7.163 16-16 16S0 24.837 0 16 7.163 0 16 0z"/><path stroke-width=".889" d="M16 .444C24.591.444 31.556 7.408 31.556 16S24.592 31.556 16 31.556C7.409 31.556.444 24.592.444 16S7.408.444 16 .444z"/><path d="M16 13.125a2.873 2.873 0 0 0-2.656 1.775 2.879 2.879 0 0 0 .623 3.133A2.875 2.875 0 1 0 16 13.125zm0 5a2.132 2.132 0 0 1-1.964-1.312A2.124 2.124 0 1 1 16 18.125zm2.75-8.25h-5.5a3.373 3.373 0 0 0-3.375 3.375v5.5a3.374 3.374 0 0 0 3.375 3.375h5.5a3.374 3.374 0 0 0 3.375-3.375v-5.5a3.373 3.373 0 0 0-3.375-3.375zm2.625 8.875a2.626 2.626 0 0 1-2.625 2.625h-5.5a2.626 2.626 0 0 1-2.625-2.625v-5.5a2.626 2.626 0 0 1 2.625-2.625h5.5a2.626 2.626 0 0 1 2.625 2.625v5.5zm-1.5-6a.629.629 0 0 1-.386.577.628.628 0 0 1-.681-.135.626.626 0 0 1 .442-1.067.625.625 0 0 1 .625.625z"/></symbol>

<symbol id="icon-icon-menu" viewBox="0 0 32 32"><path d="M8.195 10.927h15.61v.78H8.195v-.78zM8.195 15.61h15.61v.781H8.195v-.78zM8.195 20.293h15.61v.78H8.195v-.78z"/></symbol>

<symbol id="icon-icon-tw" viewBox="0 0 32 32"><path d="M16 0c8.837 0 16 7.163 16 16s-7.163 16-16 16S0 24.837 0 16 7.163 0 16 0z"/><path stroke-width=".889" d="M16 .444C24.591.444 31.556 7.408 31.556 16S24.592 31.556 16 31.556C7.409 31.556.444 24.592.444 16S7.408.444 16 .444z"/><path d="M23.344 12.356a.373.373 0 0 0-.344-.231h-1.975a2.872 2.872 0 0 0-2.487-1.5 2.901 2.901 0 0 0-2.913 2.875v.544c-2.65-.631-4.838-2.787-4.863-2.806a.373.373 0 0 0-.541.016.387.387 0 0 0-.09.178c-.544 2.975.35 4.962 1.194 6.106a6.62 6.62 0 0 0 1.625 1.569c-.969 1.175-2.563 1.787-2.581 1.794a.375.375 0 0 0-.24.401.372.372 0 0 0 .059.154c.063.094.675.919 2.813.919 4.356 0 8-3.369 8.35-7.694l1.913-1.919c.054-.051.091-.117.106-.19s.006-.148-.025-.216zm-2.625 1.894a.362.362 0 0 0-.106.244c-.256 4-3.6 7.131-7.613 7.131-.869 0-1.425-.15-1.756-.3.706-.356 1.863-1.056 2.569-2.119a.395.395 0 0 0 .05-.3.388.388 0 0 0-.194-.244c-.012 0-.95-.488-1.762-1.6-.969-1.325-1.35-2.944-1.137-4.813.913.775 2.881 2.238 5.169 2.619a.37.37 0 0 0 .437-.369v-1a2.144 2.144 0 0 1 2.15-2.125 2.137 2.137 0 0 1 1.924 1.275.37.37 0 0 0 .344.225h1.3l-1.375 1.375z"/></symbol></defs></svg>